<svg xmlns="http://www.w3.org/2000/svg" width="30.776" height="30.776" viewBox="0 0 30.776 30.776">
  <g id="Group_1900" data-name="Group 1900" transform="translate(0)">
    <path id="Path_857" data-name="Path 857" d="M3561.158,456.688a43.788,43.788,0,0,0,9.387,9.387,1.431,1.431,0,0,0,1.851-.154l3.181-3.181a2.139,2.139,0,0,1,2.306-.473l5.758,2.3a2.138,2.138,0,0,1,.717,3.5l-1.186,1.186a12.806,12.806,0,0,1-17.869.273q-3.888-3.706-7.6-7.6a12.8,12.8,0,0,1,.273-17.867l1.186-1.188a2.138,2.138,0,0,1,3.5.718l2.3,5.759a2.138,2.138,0,0,1-.473,2.305l-3.181,3.181A1.428,1.428,0,0,0,3561.158,456.688Z" transform="translate(-3554.208 -442.247)" fill="#22b573"/>
  </g>
</svg>
