<svg xmlns="http://www.w3.org/2000/svg" width="25.18" height="27.98" viewBox="0 0 25.18 27.98">
  <path id="Path_853" data-name="Path 853" d="M3254.585,187.816a2.109,2.109,0,0,0-1.084-1.718l-10.352-5.842a2.1,2.1,0,0,0-2.087.014l-10.019,5.828a2.112,2.112,0,0,0-1.084,1.718,163.741,163.741,0,0,0-.047,18.167,2.107,2.107,0,0,0,2.105,1.982h4.66a1.4,1.4,0,0,0,1.4-1.4v-6.616a2.1,2.1,0,0,1,2.1-2.1h4.2a2.1,2.1,0,0,1,2.1,2.1v6.616a1.4,1.4,0,0,0,1.4,1.4h4.66a2.107,2.107,0,0,0,2.105-1.982A163.5,163.5,0,0,0,3254.585,187.816Z" transform="translate(-3229.682 -179.985)" fill="#22b573"/>
</svg>
