<svg xmlns="http://www.w3.org/2000/svg" width="187.757" height="29.948" viewBox="0 0 187.757 29.948">
  <g id="Component_171_1" data-name="Component 171 – 1" transform="translate(0.15 0.15)">
    <path id="Path_840" data-name="Path 840" d="M396.954,490.017v5.561h-1.747v7.988h-6.273V482.477h6.273v7.54Zm7.337-7.54v21.089h-6.273V482.477Z" transform="translate(-388.935 -481.286)" fill="#f7931e" stroke="#22b573" stroke-width="0.3"/>
    <path id="Path_841" data-name="Path 841" d="M412.8,496.658v5.979a7.66,7.66,0,0,1-1.3.124,7.914,7.914,0,0,1-5.794-2.287,8.052,8.052,0,0,1,5.716-13.749,7.906,7.906,0,0,1,5.9,2.185,8.147,8.147,0,0,1,2.155,5.973v7.555h-5.779V495.3a2.982,2.982,0,0,0-.595-1.947,1.959,1.959,0,0,0-1.6-.727,2.273,2.273,0,0,0-1.638,3.816,2.042,2.042,0,0,0,1.529.619A2.622,2.622,0,0,0,412.8,496.658Z" transform="translate(-385.095 -480.157)" fill="#f7931e" stroke="#22b573" stroke-width="0.3"/>
    <path id="Path_842" data-name="Path 842" d="M424.267,508.138h-5.779V495.282a8.7,8.7,0,0,1,1.854-5.761,7.6,7.6,0,0,1,2.711-2.04,8.257,8.257,0,0,1,9.186,1.561,7.652,7.652,0,0,1,2.363,5.685,7.776,7.776,0,0,1-2.349,5.656,7.554,7.554,0,0,1-5.561,2.378q-.526,0-1.545-.108v-6.366a2.27,2.27,0,0,0,1.421.572,2.063,2.063,0,0,0,1.538-.664,2.192,2.192,0,0,0,.642-1.576,2.079,2.079,0,0,0-.666-1.553,2.2,2.2,0,0,0-1.59-.64q-2.225,0-2.225,3.074Z" transform="translate(-381.083 -480.157)" fill="#f7931e" stroke="#22b573" stroke-width="0.3"/>
    <path id="Path_843" data-name="Path 843" d="M438.732,508.138h-5.779V495.282a8.694,8.694,0,0,1,1.854-5.761,7.578,7.578,0,0,1,2.712-2.04,8.253,8.253,0,0,1,9.184,1.561,7.654,7.654,0,0,1,2.366,5.685,7.786,7.786,0,0,1-2.349,5.656,7.554,7.554,0,0,1-5.561,2.378c-.352,0-.866-.037-1.545-.108v-6.366a2.268,2.268,0,0,0,1.421.572,2.062,2.062,0,0,0,1.538-.664,2.2,2.2,0,0,0,.64-1.576,2.078,2.078,0,0,0-.664-1.553,2.209,2.209,0,0,0-1.592-.64q-2.225,0-2.224,3.074Z" transform="translate(-377.24 -480.157)" fill="#f7931e" stroke="#22b573" stroke-width="0.3"/>
    <path id="Path_844" data-name="Path 844" d="M449.723,509.123V504.1a5.407,5.407,0,0,0,2.055.494q2.81,0,3.646-3.165a5.822,5.822,0,0,1-2.967.895,4.482,4.482,0,0,1-3.539-1.6,5.986,5.986,0,0,1-1.391-4.072v-9.686h5.779v8.281q0,1.373,1.143,1.375,1.1,0,1.1-1.515v-8.141h5.779v13.749a8.852,8.852,0,0,1-2.163,6.212,8.167,8.167,0,0,1-6.242,2.811A8.759,8.759,0,0,1,449.723,509.123Z" transform="translate(-373.368 -480.093)" fill="#f7931e" stroke="#22b573" stroke-width="0.3"/>
    <path id="Path_845" data-name="Path 845" d="M477.259,488.533v15.032h-6.273V488.533h-4.806v-6.056h15.867v6.056Z" transform="translate(-368.413 -481.286)" fill="#f7931e" stroke="#22b573" stroke-width="0.3"/>
    <path id="Path_846" data-name="Path 846" d="M480.206,487.139h5.779v8.7q0,1.312,1.1,1.313,1.08,0,1.081-1.313v-8.7h5.779v8.59a7,7,0,0,1-1.995,5.06,6.939,6.939,0,0,1-10.181-.332,7.867,7.867,0,0,1-1.561-5.191Z" transform="translate(-364.686 -480.047)" fill="#f7931e" stroke="#22b573" stroke-width="0.3"/>
    <path id="Path_847" data-name="Path 847" d="M514.854,502.437h-5.777v-8.313a3.054,3.054,0,0,0-.2-1.329.751.751,0,0,0-.725-.37c-.651,0-.973.571-.973,1.715v8.3H501.4v-8.313a2.958,2.958,0,0,0-.209-1.329.769.769,0,0,0-.734-.37q-.957,0-.957,1.715v8.3h-5.779v-9.486a6.129,6.129,0,0,1,1.747-4.412,5.654,5.654,0,0,1,4.232-1.814,6.192,6.192,0,0,1,4.6,2.163,6.67,6.67,0,0,1,4.543-2.163,5.721,5.721,0,0,1,4.635,2.1,7.24,7.24,0,0,1,1.375,4.773Z" transform="translate(-361.096 -480.157)" fill="#f7931e" stroke="#22b573" stroke-width="0.3"/>
    <path id="Path_848" data-name="Path 848" d="M534.228,502.437h-5.777v-8.313a3.053,3.053,0,0,0-.2-1.329.749.749,0,0,0-.725-.37c-.651,0-.973.571-.973,1.715v8.3h-5.779v-8.313a2.957,2.957,0,0,0-.209-1.329.769.769,0,0,0-.734-.37q-.957,0-.957,1.715v8.3h-5.779v-9.486a6.13,6.13,0,0,1,1.747-4.412,5.654,5.654,0,0,1,4.232-1.814,6.191,6.191,0,0,1,4.6,2.163,6.67,6.67,0,0,1,4.543-2.163,5.722,5.722,0,0,1,4.635,2.1,7.24,7.24,0,0,1,1.375,4.773Z" transform="translate(-355.949 -480.157)" fill="#f7931e" stroke="#22b573" stroke-width="0.3"/>
    <path id="Path_849" data-name="Path 849" d="M538.244,488.412v15.4h-5.779v-15.4Zm-2.874-6.876a2.828,2.828,0,0,1,2.031.826,2.733,2.733,0,0,1,.047,3.932,3.183,3.183,0,0,1-4.156,0,2.736,2.736,0,0,1,.047-3.932A2.83,2.83,0,0,1,535.37,481.536Z" transform="translate(-350.802 -481.536)" fill="#f7931e" stroke="#22b573" stroke-width="0.3"/>
  </g>
</svg>
