<svg xmlns="http://www.w3.org/2000/svg" width="26.58" height="30.777" viewBox="0 0 26.58 30.777">
  <path id="Path_855" data-name="Path 855" d="M3425.646,181.793a2.107,2.107,0,0,0-2.107-2.01h-3.233v-.7a2.1,2.1,0,1,0-4.2,0v.7h-6.995v-.7a2.1,2.1,0,1,0-4.2,0v.7h-3.233a2.106,2.106,0,0,0-2.105,2.01q-.514,11.974,0,23.958a2.106,2.106,0,0,0,2.105,2.01h21.854a2.107,2.107,0,0,0,2.107-2.01Q3426.158,193.778,3425.646,181.793Zm-11.985,14.777h-7.344a1.4,1.4,0,0,1,0-2.8h7.344a1.4,1.4,0,0,1,0,2.8Zm3.847-5.6h-11.191a1.4,1.4,0,0,1,0-2.8h11.191a1.4,1.4,0,0,1,0,2.8Z" transform="translate(-3399.322 -176.985)" fill="#22b573"/>
</svg>
