<svg xmlns="http://www.w3.org/2000/svg" xmlns:xlink="http://www.w3.org/1999/xlink" width="28" height="28" viewBox="0 0 28 28">
  <defs>
    <radialGradient id="radial-gradient" cx="0.5" cy="0.5" r="0.5" gradientUnits="objectBoundingBox">
      <stop offset="0" stop-color="#f7931e"/>
      <stop offset="1" stop-color="#f7931e"/>
    </radialGradient>
  </defs>
  <path id="Path_1132" data-name="Path 1132" d="M3366.889,371.128c1.8-1.848,3.619-3.678,5.38-5.562a5.023,5.023,0,0,0-7.1-7.1c-1.884,1.762-3.714,3.581-5.562,5.381-1.848-1.8-3.678-3.619-5.562-5.381a5.023,5.023,0,0,0-7.1,7.1c1.762,1.884,3.58,3.714,5.38,5.562-1.8,1.848-3.619,3.678-5.38,5.56a5.014,5.014,0,0,0,.136,6.964h0a5.012,5.012,0,0,0,6.962.137c1.884-1.764,3.714-3.581,5.562-5.381,1.848,1.8,3.678,3.617,5.563,5.381a5.012,5.012,0,0,0,6.961-.137h0a5.014,5.014,0,0,0,.137-6.964C3370.508,374.805,3368.689,372.976,3366.889,371.128Z" transform="translate(-3345.609 -357.128)" fill="url(#radial-gradient)"/>
</svg>
