<svg xmlns="http://www.w3.org/2000/svg" width="25.719" height="22.211" viewBox="0 0 25.719 22.211">
  <g id="Group_1899" data-name="Group 1899" transform="translate(-3452.537 -266.807)">
    <path id="Path_850" data-name="Path 850" d="M3476.569,281.027q-11.169-.44-22.345,0a1.762,1.762,0,0,0-1.687,1.761v1.883a1.761,1.761,0,0,0,1.687,1.761q11.169.44,22.345,0a1.762,1.762,0,0,0,1.687-1.761v-1.883A1.762,1.762,0,0,0,3476.569,281.027Z" transform="translate(0 2.366)" fill="#22b573"/>
    <path id="Path_851" data-name="Path 851" d="M3476.569,274.027q-11.169-.44-22.345,0a1.762,1.762,0,0,0-1.687,1.761v1.883a1.762,1.762,0,0,0,1.687,1.761q11.169.44,22.345,0a1.762,1.762,0,0,0,1.687-1.761v-1.883A1.762,1.762,0,0,0,3476.569,274.027Z" transform="translate(0 1.183)" fill="#22b573"/>
    <path id="Path_852" data-name="Path 852" d="M3476.569,267.027q-11.169-.44-22.345,0a1.761,1.761,0,0,0-1.687,1.761v1.883a1.762,1.762,0,0,0,1.687,1.761q11.169.44,22.345,0a1.762,1.762,0,0,0,1.687-1.761v-1.883A1.762,1.762,0,0,0,3476.569,267.027Z" transform="translate(0 0)" fill="#22b573"/>
  </g>
</svg>
